<?xml version="1.0" standalone="no"?> <!DOCTYPE svg PUBLIC "-//W3C//DTD SVG 1.0//EN" "http://www.w3.org/TR/2001/REC-SVG-20010904/DTD/svg10.dtd" > <svg xmlns="http://www.w3.org/2000/svg" width="100%" height="100%">
<defs >
<font id="opjam2" horiz-adv-x="323" ><font-face
    font-family="opjam"
    units-per-em="1024"
    panose-1="0 0 4 0 0 0 0 0 0 0"
    ascent="448"
    descent="-128"
    alphabetic="0" />
<missing-glyph horiz-adv-x="27" d="M208 59V125H141V59H208ZM274 136V202H141V136H274ZM208 213V279H141V213H208ZM274 290V356H208Q180 356 161 337Q141 317 141 290H274ZM0 0V416H416V0H0Z" />
<glyph unicode=" " glyph-name="null" horiz-adv-x="160" />
<glyph unicode="!" glyph-name="null" horiz-adv-x="123" d="M48 16Q41 16 36 20Q32 25 32 32V64Q32 70 36 75Q41 80 48 80Q54 80 59 75Q64 70 64 64V32Q64 25 59 20Q54 16 48 16V16ZM48 112Q41 112 36 116Q32 121 32 128V400Q32 406 36 411Q41 416 48 416Q54
416 59 411Q64 406 64 400V128Q64 121 59 116Q54 112 48 112V112Z" />
<glyph unicode="&quot;" glyph-name="null" horiz-adv-x="187" d="M48 320Q41 320 36 324Q32 329 32 336V400Q32 406 36 411Q41 416 48 416Q54 416 59 411Q64 406 64 400V336Q64 329 59 324Q54 320 48 320V320ZM112 320Q105 320 100 324Q96 329 96 336V400Q96
406 100 411Q105 416 112 416Q118 416 123 411Q128 406 128 400V336Q128 329 123 324Q118 320 112 320V320Z" />
<glyph unicode="#" glyph-name="null" horiz-adv-x="411" d="M208 192Q214 192 219 196Q224 201 224 208V272Q224 278 219 283Q214 288 208 288H144Q137 288 132 283Q128 278 128 272V208Q128 201 132 196Q137 192 144 192H208ZM112 64Q105 64 100 68Q96 73 96
80V144Q96 150 91 155Q86 160 80 160H16Q9 160 4 164Q0 169 0 176Q0 182 4 187Q9 192 16 192H80Q86 192 91 196Q96 201 96 208V272Q96 278 91 283Q86 288 80 288H16Q9 288 4 292Q0 297 0 304Q0 310 4 315Q9 320 16 320H80Q86 320 91 324Q96 329 96 336V400Q96 406
100 411Q105 416 112 416Q118 416 123 411Q128 406 128 400V336Q128 329 132 324Q137 320 144 320H208Q214 320 219 324Q224 329 224 336V400Q224 406 228 411Q233 416 240 416Q246 416 251 411Q256 406 256 400V336Q256 329 260 324Q265 320 272 320H336Q342 320
347 315Q352 310 352 304Q352 297 347 292Q342 288 336 288H272Q265 288 260 283Q256 278 256 272V208Q256 201 260 196Q265 192 272 192H336Q342 192 347 187Q352 182 352 176Q352 169 347 164Q342 160 336 160H272Q265 160 260 155Q256 150 256 144V80Q256 73
251 68Q246 64 240 64Q233 64 228 68Q224 73 224 80V144Q224 150 219 155Q214 160 208 160H144Q137 160 132 155Q128 150 128 144V80Q128 73 123 68Q118 64 112 64V64Z" />
<glyph unicode="$" glyph-name="null" horiz-adv-x="411" d="M208 32Q214 32 219 36Q224 41 224 48V176Q224 182 219 187Q214 192 208 192H144Q137 192 132 187Q128 182 128 176V48Q128 41 132 36Q137 32 144 32H208ZM304 32Q310 32 315 36Q320 41 320 48V176Q320
182 315 187Q310 192 304 192H272Q265 192 260 187Q256 182 256 176V48Q256 41 260 36Q265 32 272 32H304ZM80 224Q86 224 91 228Q96 233 96 240V368Q96 374 91 379Q86 384 80 384H48Q41 384 36 379Q32 374 32 368V240Q32 233 36 228Q41 224 48 224H80ZM208 224Q214
224 219 228Q224 233 224 240V368Q224 374 219 379Q214 384 208 384H144Q137 384 132 379Q128 374 128 368V240Q128 233 132 228Q137 224 144 224H208ZM112 -32Q105 -32 100 -27Q96 -22 96 -16V0H32Q18 0 9 9Q0 18 0 32V48Q0 54 4 59Q9 64 16 64Q22 64 27 59Q32
54 32 48Q32 41 36 36Q41 32 48 32H80Q86 32 91 36Q96 41 96 48V176Q96 182 91 187Q86 192 80 192H32Q18 192 9 201Q0 210 0 224V384Q0 397 9 406Q18 416 32 416H96V432Q96 438 100 443Q105 448 112 448Q118 448 123 443Q128 438 128 432V416H224V432Q224 438 228
443Q233 448 240 448Q246 448 251 443Q256 438 256 432V416H320Q333 416 342 406Q352 397 352 384V368Q352 361 347 356Q342 352 336 352Q329 352 324 356Q320 361 320 368Q320 374 315 379Q310 384 304 384H272Q265 384 260 379Q256 374 256 368V240Q256 233 260
228Q265 224 272 224H320Q333 224 342 214Q352 205 352 192V32Q352 18 342 9Q333 0 320 0H256V-16Q256 -22 251 -27Q246 -32 240 -32Q233 -32 228 -27Q224 -22 224 -16V0H128V-16Q128 -22 123 -27Q118 -32 112 -32V-32Z" />
<glyph unicode="%" glyph-name="null" horiz-adv-x="443" d="M320 96V128H288V96H320ZM288 64Q274 64 265 73Q256 82 256 96V128Q256 141 265 150Q274 160 288 160H320Q333 160 342 150Q352 141 352 128V96Q352 82 342 73Q333 64 320 64H288ZM96 320V352H64V320H96ZM64
288Q50 288 41 297Q32 306 32 320V352Q32 365 41 374Q50 384 64 384H96Q109 384 118 374Q128 365 128 352V320Q128 306 118 297Q109 288 96 288H64ZM0 0V64L320 384H384L0 0V0Z" />
<glyph unicode="&amp;" glyph-name="null" horiz-adv-x="443" d="M320 32V176Q320 182 315 187Q310 192 304 192H48Q41 192 36 187Q32 182 32 176V48Q32 41 36 36Q41 32 48 32H256L192 96L224 128L320 32V32ZM304 224Q310 224 315 228Q320 233 320 240V368Q320
374 315 379Q310 384 304 384H48Q41 384 36 379Q32 374 32 368V224H304ZM320 -32L288 0H32Q18 0 9 9Q0 18 0 32V192Q0 198 4 203Q9 208 16 208Q9 208 4 212Q0 217 0 224V384Q0 397 9 406Q18 416 32 416H320Q333 416 342 406Q352 397 352 384V224Q352 217 347 212Q342
208 336 208Q342 208 347 203Q352 198 352 192V32L336 16L384 -32H320Z" />
<glyph unicode="&apos;" glyph-name="null" horiz-adv-x="123" d="M48 320Q41 320 36 324Q32 329 32 336V400Q32 406 36 411Q41 416 48 416Q54 416 59 411Q64 406 64 400V336Q64 329 59 324Q54 320 48 320V320Z" />
<glyph unicode="(" glyph-name="null" horiz-adv-x="155" d="M64 0Q50 0 41 9Q32 18 32 32V384Q32 397 41 406Q50 416 64 416H80Q86 416 91 411Q96 406 96 400Q96 393 91 388Q86 384 80 384Q73 384 68 379Q64 374 64 368V48Q64 41 68 36Q73 32 80 32Q86 32 91
27Q96 22 96 16Q96 9 91 4Q86 0 80 0H64Z" />
<glyph unicode=")" glyph-name="null" horiz-adv-x="155" d="M48 0Q41 0 36 4Q32 9 32 16Q32 22 36 27Q41 32 48 32Q54 32 59 36Q64 41 64 48V368Q64 374 59 379Q54 384 48 384Q41 384 36 388Q32 393 32 400Q32 406 36 411Q41 416 48 416H64Q77 416 86 406Q96
397 96 384V32Q96 18 86 9Q77 0 64 0H48Z" />
<glyph unicode="*" glyph-name="null" horiz-adv-x="187" d="M64 288V320H32V352H64V384H96V352H128V320H96V288H64Z" />
<glyph unicode="+" glyph-name="null" horiz-adv-x="411" d="M208 64Q201 64 196 68Q192 73 192 80V176Q192 182 187 187Q182 192 176 192H80Q73 192 68 196Q64 201 64 208Q64 214 68 219Q73 224 80 224H176Q182 224 187 228Q192 233 192 240V336Q192 342 196
347Q201 352 208 352Q214 352 219 347Q224 342 224 336V240Q224 233 228 228Q233 224 240 224H336Q342 224 347 219Q352 214 352 208Q352 201 347 196Q342 192 336 192H240Q233 192 228 187Q224 182 224 176V80Q224 73 219 68Q214 64 208 64V64Z" />
<glyph unicode="," glyph-name="null" horiz-adv-x="123" d="M16 -32Q9 -32 4 -27Q0 -22 0 -16Q0 -9 4 -4Q9 0 16 0Q22 0 27 4Q32 9 32 16V32Q32 38 36 43Q41 48 48 48Q54 48 59 43Q64 38 64 32V0Q64 -13 54 -22Q45 -32 32 -32H16Z" />
<glyph unicode="-" glyph-name="null" horiz-adv-x="411" d="M80 192Q73 192 68 196Q64 201 64 208Q64 214 68 219Q73 224 80 224H336Q342 224 347 219Q352 214 352 208Q352 201 347 196Q342 192 336 192H80Z" />
<glyph unicode="." glyph-name="null" horiz-adv-x="123" d="M48 0Q41 0 36 4Q32 9 32 16Q32 22 36 27Q41 32 48 32Q54 32 59 27Q64 22 64 16Q64 9 59 4Q54 0 48 0V0Z" />
<glyph unicode="/" glyph-name="null" horiz-adv-x="283" d="M0 0V64L176 416H208L0 0V0Z" />
<glyph unicode="0" glyph-name="null" horiz-adv-x="411" d="M304 32Q310 32 315 36Q320 41 320 48V352L32 64V48Q32 41 36 36Q41 32 48 32H304ZM32 128L288 384H48Q41 384 36 379Q32 374 32 368V128V128ZM32 0Q18 0 9 9Q0 18 0 32V384Q0 397 9 406Q18 416 32
416H320Q333 416 342 406Q352 397 352 384V32Q352 18 342 9Q333 0 320 0H32Z" />
<glyph unicode="1" glyph-name="null" horiz-adv-x="411" d="M32 0Q18 0 9 9Q0 18 0 32V48Q0 54 4 59Q9 64 16 64Q22 64 27 59Q32 54 32 48Q32 41 36 36Q41 32 48 32H128Q141 32 150 41Q160 50 160 64V368Q160 374 155 379Q150 384 144 384H48Q41 384 36 379Q32
374 32 368Q32 361 27 356Q22 352 16 352Q9 352 4 356Q0 361 0 368V384Q0 397 9 406Q18 416 32 416H160Q173 416 182 406Q192 397 192 384V64Q192 50 201 41Q210 32 224 32H304Q310 32 315 36Q320 41 320 48Q320 54 324 59Q329 64 336 64Q342 64 347 59Q352 54
352 48V32Q352 18 342 9Q333 0 320 0H32Z" />
<glyph unicode="2" glyph-name="null" horiz-adv-x="411" d="M32 0Q18 0 9 9Q0 18 0 32V224Q0 237 9 246Q18 256 32 256H304Q310 256 315 260Q320 265 320 272V368Q320 374 315 379Q310 384 304 384H48Q41 384 36 379Q32 374 32 368Q32 361 27 356Q22 352 16 352Q9
352 4 356Q0 361 0 368V384Q0 397 9 406Q18 416 32 416H320Q333 416 342 406Q352 397 352 384V256Q352 242 342 233Q333 224 320 224H48Q41 224 36 219Q32 214 32 208V48Q32 41 36 36Q41 32 48 32H304Q310 32 315 36Q320 41 320 48Q320 54 324 59Q329 64 336 64Q342
64 347 59Q352 54 352 48V32Q352 18 342 9Q333 0 320 0H32Z" />
<glyph unicode="3" glyph-name="null" horiz-adv-x="411" d="M32 0Q18 0 9 9Q0 18 0 32V48Q0 54 4 59Q9 64 16 64Q22 64 27 59Q32 54 32 48Q32 41 36 36Q41 32 48 32H304Q310 32 315 36Q320 41 320 48V176Q320 182 315 187Q310 192 304 192H16Q9 192 4 196Q0 201
0 208Q0 214 4 219Q9 224 16 224H304Q310 224 315 228Q320 233 320 240V368Q320 374 315 379Q310 384 304 384H48Q41 384 36 379Q32 374 32 368Q32 361 27 356Q22 352 16 352Q9 352 4 356Q0 361 0 368V384Q0 397 9 406Q18 416 32 416H320Q333 416 342 406Q352 397
352 384V224Q352 217 347 212Q342 208 336 208Q342 208 347 203Q352 198 352 192V32Q352 18 342 9Q333 0 320 0H32Z" />
<glyph unicode="4" glyph-name="null" horiz-adv-x="443" d="M304 0Q297 0 292 4Q288 9 288 16Q288 22 292 27Q297 32 304 32Q310 32 315 36Q320 41 320 48V176Q320 182 315 187Q310 192 304 192H32Q18 192 9 201Q0 210 0 224V384Q0 397 9 406Q18 416 32 416H48Q54
416 59 411Q64 406 64 400Q64 393 59 388Q54 384 48 384Q41 384 36 379Q32 374 32 368V240Q32 233 36 228Q41 224 48 224H304Q310 224 315 228Q320 233 320 240V368Q320 374 315 379Q310 384 304 384Q297 384 292 388Q288 393 288 400Q288 406 292 411Q297 416
304 416H320Q333 416 342 406Q352 397 352 384V240Q352 233 356 228Q361 224 368 224Q374 224 379 219Q384 214 384 208Q384 201 379 196Q374 192 368 192Q361 192 356 187Q352 182 352 176V32Q352 18 342 9Q333 0 320 0H304Z" />
<glyph unicode="5" glyph-name="null" horiz-adv-x="411" d="M32 0Q18 0 9 9Q0 18 0 32V80Q0 86 4 91Q9 96 16 96Q22 96 27 91Q32 86 32 80V48Q32 41 36 36Q41 32 48 32H304Q310 32 315 36Q320 41 320 48V208Q320 214 315 219Q310 224 304 224H32Q18 224 9 233Q0
242 0 256V384Q0 397 9 406Q18 416 32 416H320Q333 416 342 406Q352 397 352 384V368Q352 361 347 356Q342 352 336 352Q329 352 324 356Q320 361 320 368Q320 374 315 379Q310 384 304 384H48Q41 384 36 379Q32 374 32 368V272Q32 265 36 260Q41 256 48 256H320Q333
256 342 246Q352 237 352 224V32Q352 18 342 9Q333 0 320 0H32Z" />
<glyph unicode="6" glyph-name="null" horiz-adv-x="411" d="M304 32Q310 32 315 36Q320 41 320 48V176Q320 182 315 187Q310 192 304 192H48Q41 192 36 187Q32 182 32 176V48Q32 41 36 36Q41 32 48 32H304ZM32 0Q18 0 9 9Q0 18 0 32V384Q0 397 9 406Q18 416 32
416H320Q333 416 342 406Q352 397 352 384V368Q352 361 347 356Q342 352 336 352Q329 352 324 356Q320 361 320 368Q320 374 315 379Q310 384 304 384H48Q41 384 36 379Q32 374 32 368V240Q32 233 36 228Q41 224 48 224H320Q333 224 342 214Q352 205 352 192V32Q352
18 342 9Q333 0 320 0H32Z" />
<glyph unicode="7" glyph-name="null" horiz-adv-x="443" d="M304 0Q297 0 292 4Q288 9 288 16Q288 22 292 27Q297 32 304 32Q310 32 315 36Q320 41 320 48V192H192Q185 192 180 196Q176 201 176 208Q176 214 180 219Q185 224 192 224H320V368Q320 374 315 379Q310
384 304 384H48Q41 384 36 379Q32 374 32 368Q32 361 27 356Q22 352 16 352Q9 352 4 356Q0 361 0 368V384Q0 397 9 406Q18 416 32 416H320Q333 416 342 406Q352 397 352 384V224H368Q374 224 379 219Q384 214 384 208Q384 201 379 196Q374 192 368 192H352V32Q352
18 342 9Q333 0 320 0H304Z" />
<glyph unicode="8" glyph-name="null" horiz-adv-x="411" d="M304 32Q310 32 315 36Q320 41 320 48V176Q320 182 315 187Q310 192 304 192H48Q41 192 36 187Q32 182 32 176V48Q32 41 36 36Q41 32 48 32H304ZM304 224Q310 224 315 228Q320 233 320 240V368Q320
374 315 379Q310 384 304 384H48Q41 384 36 379Q32 374 32 368V240Q32 233 36 228Q41 224 48 224H304ZM32 0Q18 0 9 9Q0 18 0 32V192Q0 198 4 203Q9 208 16 208Q9 208 4 212Q0 217 0 224V384Q0 397 9 406Q18 416 32 416H320Q333 416 342 406Q352 397 352 384V224Q352
217 347 212Q342 208 336 208Q342 208 347 203Q352 198 352 192V32Q352 18 342 9Q333 0 320 0H32Z" />
<glyph unicode="9" glyph-name="null" horiz-adv-x="411" d="M304 224Q310 224 315 228Q320 233 320 240V368Q320 374 315 379Q310 384 304 384H48Q41 384 36 379Q32 374 32 368V240Q32 233 36 228Q41 224 48 224H304ZM32 0Q18 0 9 9Q0 18 0 32V48Q0 54 4 59Q9
64 16 64Q22 64 27 59Q32 54 32 48Q32 41 36 36Q41 32 48 32H304Q310 32 315 36Q320 41 320 48V176Q320 182 315 187Q310 192 304 192H32Q18 192 9 201Q0 210 0 224V384Q0 397 9 406Q18 416 32 416H320Q333 416 342 406Q352 397 352 384V32Q352 18 342 9Q333 0
320 0H32Z" />
<glyph unicode=":" glyph-name="null" horiz-adv-x="123" d="M48 48Q41 48 36 52Q32 57 32 64V96Q32 102 36 107Q41 112 48 112Q54 112 59 107Q64 102 64 96V64Q64 57 59 52Q54 48 48 48V48ZM48 176Q41 176 36 180Q32 185 32 192V224Q32 230 36 235Q41 240 48
240Q54 240 59 235Q64 230 64 224V192Q64 185 59 180Q54 176 48 176V176Z" />
<glyph unicode=";" glyph-name="null" horiz-adv-x="123" d="M16 -32Q9 -32 4 -27Q0 -22 0 -16Q0 -9 4 -4Q9 0 16 0Q22 0 27 4Q32 9 32 16V32Q32 38 36 43Q41 48 48 48Q54 48 59 43Q64 38 64 32V0Q64 -13 54 -22Q45 -32 32 -32H16ZM48 176Q41 176 36 180Q32 185
32 192V224Q32 230 36 235Q41 240 48 240Q54 240 59 235Q64 230 64 224V192Q64 185 59 180Q54 176 48 176V176Z" />
<glyph unicode="&lt;" glyph-name="null" horiz-adv-x="283" d="M192 32L32 192V224L192 384H224V352L80 208L224 64V32H192Z" />
<glyph unicode="=" glyph-name="null" horiz-adv-x="379" d="M48 96Q41 96 36 100Q32 105 32 112Q32 118 36 123Q41 128 48 128H304Q310 128 315 123Q320 118 320 112Q320 105 315 100Q310 96 304 96H48ZM48 192Q41 192 36 196Q32 201 32 208Q32 214 36 219Q41
224 48 224H304Q310 224 315 219Q320 214 320 208Q320 201 315 196Q310 192 304 192H48Z" />
<glyph unicode="&gt;" glyph-name="null" horiz-adv-x="283" d="M32 32V64L176 208L32 352V384H64L224 224V192L64 32H32Z" />
<glyph unicode="?" glyph-name="null" horiz-adv-x="411" d="M176 16Q169 16 164 20Q160 25 160 32V64Q160 70 164 75Q169 80 176 80Q182 80 187 75Q192 70 192 64V32Q192 25 187 20Q182 16 176 16V16ZM176 112Q169 112 164 116Q160 121 160 128V192Q160 205 169
214Q178 224 192 224H304Q310 224 315 228Q320 233 320 240V368Q320 374 315 379Q310 384 304 384H48Q41 384 36 379Q32 374 32 368Q32 361 27 356Q22 352 16 352Q9 352 4 356Q0 361 0 368V384Q0 397 9 406Q18 416 32 416H320Q333 416 342 406Q352 397 352 384V224Q352
210 342 201Q333 192 320 192H208Q201 192 196 187Q192 182 192 176V128Q192 121 187 116Q182 112 176 112V112Z" />
<glyph unicode="@" glyph-name="null" horiz-adv-x="411" d="M224 96Q237 96 246 105Q256 114 256 128V304Q256 310 251 315Q246 320 240 320H112Q105 320 100 315Q96 310 96 304V112Q96 105 100 100Q105 96 112 96H224ZM32 0Q18 0 9 9Q0 18 0 32V384Q0 397 9
406Q18 416 32 416H320Q333 416 342 406Q352 397 352 384V96Q352 82 342 73Q333 64 320 64H288Q288 57 283 52Q278 48 272 48Q265 48 260 52Q256 57 256 64V96Q256 82 246 73Q237 64 224 64H96Q82 64 73 73Q64 82 64 96V320Q64 333 73 342Q82 352 96 352H256Q269
352 278 342Q288 333 288 320V112Q288 105 292 100Q297 96 304 96Q310 96 315 100Q320 105 320 112V368Q320 374 315 379Q310 384 304 384H48Q41 384 36 379Q32 374 32 368V48Q32 41 36 36Q41 32 48 32H336Q342 32 347 27Q352 22 352 16Q352 9 347 4Q342 0 336
0H32Z" />
<glyph unicode="A" glyph-name="null" horiz-adv-x="411" d="M304 224Q310 224 315 228Q320 233 320 240V368Q320 374 315 379Q310 384 304 384H48Q41 384 36 379Q32 374 32 368V240Q32 233 36 228Q41 224 48 224H304ZM16 0Q9 0 4 4Q0 9 0 16V384Q0 397 9 406Q18
416 32 416H320Q333 416 342 406Q352 397 352 384V16Q352 9 347 4Q342 0 336 0Q329 0 324 4Q320 9 320 16V176Q320 182 315 187Q310 192 304 192H48Q41 192 36 187Q32 182 32 176V16Q32 9 27 4Q22 0 16 0V0Z" />
<glyph unicode="B" glyph-name="null" horiz-adv-x="411" d="M304 32Q310 32 315 36Q320 41 320 48V176Q320 182 315 187Q310 192 304 192H48Q41 192 36 187Q32 182 32 176V48Q32 41 36 36Q41 32 48 32H304ZM304 224Q310 224 315 228Q320 233 320 240V368Q320
374 315 379Q310 384 304 384H48Q41 384 36 379Q32 374 32 368V240Q32 233 36 228Q41 224 48 224H304ZM0 0V416H320Q333 416 342 406Q352 397 352 384V224Q352 217 347 212Q342 208 336 208Q342 208 347 203Q352 198 352 192V32Q352 18 342 9Q333 0 320 0H0Z" />
<glyph unicode="C" glyph-name="null" horiz-adv-x="411" d="M32 0Q18 0 9 9Q0 18 0 32V384Q0 397 9 406Q18 416 32 416H320Q333 416 342 406Q352 397 352 384V368Q352 361 347 356Q342 352 336 352Q329 352 324 356Q320 361 320 368Q320 374 315 379Q310 384
304 384H48Q41 384 36 379Q32 374 32 368V48Q32 41 36 36Q41 32 48 32H304Q310 32 315 36Q320 41 320 48Q320 54 324 59Q329 64 336 64Q342 64 347 59Q352 54 352 48V32Q352 18 342 9Q333 0 320 0H32Z" />
<glyph unicode="D" glyph-name="null" horiz-adv-x="411" d="M304 32Q310 32 315 36Q320 41 320 48V368Q320 374 315 379Q310 384 304 384H48Q41 384 36 379Q32 374 32 368V48Q32 41 36 36Q41 32 48 32H304ZM0 0V416H320Q333 416 342 406Q352 397 352 384V32Q352
18 342 9Q333 0 320 0H0Z" />
<glyph unicode="E" glyph-name="null" horiz-adv-x="411" d="M32 0Q18 0 9 9Q0 18 0 32V384Q0 397 9 406Q18 416 32 416H336Q342 416 347 411Q352 406 352 400Q352 393 347 388Q342 384 336 384H48Q41 384 36 379Q32 374 32 368V240Q32 233 36 228Q41 224 48 224H336Q342
224 347 219Q352 214 352 208Q352 201 347 196Q342 192 336 192H48Q41 192 36 187Q32 182 32 176V48Q32 41 36 36Q41 32 48 32H336Q342 32 347 27Q352 22 352 16Q352 9 347 4Q342 0 336 0H32Z" />
<glyph unicode="F" glyph-name="null" horiz-adv-x="411" d="M16 0Q9 0 4 4Q0 9 0 16V384Q0 397 9 406Q18 416 32 416H320Q333 416 342 406Q352 397 352 384V368Q352 361 347 356Q342 352 336 352Q329 352 324 356Q320 361 320 368Q320 374 315 379Q310 384 304
384H48Q41 384 36 379Q32 374 32 368V240Q32 233 36 228Q41 224 48 224H336Q342 224 347 219Q352 214 352 208Q352 201 347 196Q342 192 336 192H48Q41 192 36 187Q32 182 32 176V16Q32 9 27 4Q22 0 16 0V0Z" />
<glyph unicode="G" glyph-name="null" horiz-adv-x="411" d="M32 0Q18 0 9 9Q0 18 0 32V384Q0 397 9 406Q18 416 32 416H320Q333 416 342 406Q352 397 352 384V368Q352 361 347 356Q342 352 336 352Q329 352 324 356Q320 361 320 368Q320 374 315 379Q310 384
304 384H48Q41 384 36 379Q32 374 32 368V48Q32 41 36 36Q41 32 48 32H304Q310 32 315 36Q320 41 320 48V176Q320 182 315 187Q310 192 304 192H144Q137 192 132 196Q128 201 128 208Q128 214 132 219Q137 224 144 224H320Q333 224 342 214Q352 205 352 192V32Q352
18 342 9Q333 0 320 0H32Z" />
<glyph unicode="H" glyph-name="null" horiz-adv-x="411" d="M32 0Q18 0 9 9Q0 18 0 32V384Q0 397 9 406Q18 416 32 416H48Q54 416 59 411Q64 406 64 400Q64 393 59 388Q54 384 48 384Q41 384 36 379Q32 374 32 368V240Q32 233 36 228Q41 224 48 224H304Q310 224
315 228Q320 233 320 240V368Q320 374 315 379Q310 384 304 384Q297 384 292 388Q288 393 288 400Q288 406 292 411Q297 416 304 416H320Q333 416 342 406Q352 397 352 384V32Q352 18 342 9Q333 0 320 0H304Q297 0 292 4Q288 9 288 16Q288 22 292 27Q297 32 304
32Q310 32 315 36Q320 41 320 48V176Q320 182 315 187Q310 192 304 192H48Q41 192 36 187Q32 182 32 176V48Q32 41 36 36Q41 32 48 32Q54 32 59 27Q64 22 64 16Q64 9 59 4Q54 0 48 0H32Z" />
<glyph unicode="I" glyph-name="null" horiz-adv-x="411" d="M32 0Q18 0 9 9Q0 18 0 32V48Q0 54 4 59Q9 64 16 64Q22 64 27 59Q32 54 32 48Q32 41 36 36Q41 32 48 32H144Q150 32 155 36Q160 41 160 48V368Q160 374 155 379Q150 384 144 384H48Q41 384 36 379Q32
374 32 368Q32 361 27 356Q22 352 16 352Q9 352 4 356Q0 361 0 368V384Q0 397 9 406Q18 416 32 416H320Q333 416 342 406Q352 397 352 384V368Q352 361 347 356Q342 352 336 352Q329 352 324 356Q320 361 320 368Q320 374 315 379Q310 384 304 384H208Q201 384
196 379Q192 374 192 368V48Q192 41 196 36Q201 32 208 32H304Q310 32 315 36Q320 41 320 48Q320 54 324 59Q329 64 336 64Q342 64 347 59Q352 54 352 48V32Q352 18 342 9Q333 0 320 0H32Z" />
<glyph unicode="J" glyph-name="null" horiz-adv-x="411" d="M32 0Q18 0 9 9Q0 18 0 32V48Q0 54 4 59Q9 64 16 64Q22 64 27 59Q32 54 32 48Q32 41 36 36Q41 32 48 32H304Q310 32 315 36Q320 41 320 48V368Q320 374 315 379Q310 384 304 384Q297 384 292 388Q288
393 288 400Q288 406 292 411Q297 416 304 416H320Q333 416 342 406Q352 397 352 384V32Q352 18 342 9Q333 0 320 0H32Z" />
<glyph unicode="K" glyph-name="null" horiz-adv-x="411" d="M32 0Q18 0 9 9Q0 18 0 32V384Q0 397 9 406Q18 416 32 416H48Q54 416 59 411Q64 406 64 400Q64 393 59 388Q54 384 48 384Q41 384 36 379Q32 374 32 368V240Q32 233 36 228Q41 224 48 224H224L320 416H352L256
224V192L352 0H320L224 192H48Q41 192 36 187Q32 182 32 176V48Q32 41 36 36Q41 32 48 32Q54 32 59 27Q64 22 64 16Q64 9 59 4Q54 0 48 0H32Z" />
<glyph unicode="L" glyph-name="null" horiz-adv-x="411" d="M32 0Q18 0 9 9Q0 18 0 32V384Q0 397 9 406Q18 416 32 416H48Q54 416 59 411Q64 406 64 400Q64 393 59 388Q54 384 48 384Q41 384 36 379Q32 374 32 368V48Q32 41 36 36Q41 32 48 32H304Q310 32 315
36Q320 41 320 48Q320 54 324 59Q329 64 336 64Q342 64 347 59Q352 54 352 48V32Q352 18 342 9Q333 0 320 0H32Z" />
<glyph unicode="M" glyph-name="null" horiz-adv-x="411" d="M32 0Q18 0 9 9Q0 18 0 32V384Q0 397 9 406Q18 416 32 416H48L176 160L304 416H320Q333 416 342 406Q352 397 352 384V32Q352 18 342 9Q333 0 320 0H304Q297 0 292 4Q288 9 288 16Q288 22 292 27Q297
32 304 32Q310 32 315 36Q320 41 320 48V384L176 96L32 384V48Q32 41 36 36Q41 32 48 32Q54 32 59 27Q64 22 64 16Q64 9 59 4Q54 0 48 0H32Z" />
<glyph unicode="N" glyph-name="null" horiz-adv-x="379" d="M32 0Q18 0 9 9Q0 18 0 32V384Q0 397 9 406Q18 416 32 416H80L272 32H288V368Q288 374 283 379Q278 384 272 384Q265 384 260 388Q256 393 256 400Q256 406 260 411Q265 416 272 416H288Q301 416 310
406Q320 397 320 384V32Q320 18 310 9Q301 0 288 0H240L48 384H32V48Q32 41 36 36Q41 32 48 32Q54 32 59 27Q64 22 64 16Q64 9 59 4Q54 0 48 0H32Z" />
<glyph unicode="O" glyph-name="null" horiz-adv-x="411" d="M304 32Q310 32 315 36Q320 41 320 48V368Q320 374 315 379Q310 384 304 384H48Q41 384 36 379Q32 374 32 368V48Q32 41 36 36Q41 32 48 32H304ZM32 0Q18 0 9 9Q0 18 0 32V384Q0 397 9 406Q18 416 32
416H320Q333 416 342 406Q352 397 352 384V32Q352 18 342 9Q333 0 320 0H32Z" />
<glyph unicode="P" glyph-name="null" horiz-adv-x="411" d="M304 224Q310 224 315 228Q320 233 320 240V368Q320 374 315 379Q310 384 304 384H48Q41 384 36 379Q32 374 32 368V240Q32 233 36 228Q41 224 48 224H304ZM16 0Q9 0 4 4Q0 9 0 16V384Q0 397 9 406Q18
416 32 416H320Q333 416 342 406Q352 397 352 384V224Q352 210 342 201Q333 192 320 192H48Q41 192 36 187Q32 182 32 176V16Q32 9 27 4Q22 0 16 0V0Z" />
<glyph unicode="Q" glyph-name="null" horiz-adv-x="411" d="M304 32Q310 32 315 36Q320 41 320 48V368Q320 374 315 379Q310 384 304 384H48Q41 384 36 379Q32 374 32 368V48Q32 41 36 36Q41 32 48 32H224L160 160H208L272 32H304ZM256 -32L240 0H32Q18 0 9 9Q0
18 0 32V384Q0 397 9 406Q18 416 32 416H320Q333 416 342 406Q352 397 352 384V32Q352 18 342 9Q333 0 320 0H288L304 -32H256Z" />
<glyph unicode="R" glyph-name="null" horiz-adv-x="411" d="M304 224Q310 224 315 228Q320 233 320 240V368Q320 374 315 379Q310 384 304 384H48Q41 384 36 379Q32 374 32 368V240Q32 233 36 228Q41 224 48 224H304ZM16 0Q9 0 4 4Q0 9 0 16V384Q0 397 9 406Q18
416 32 416H320Q333 416 342 406Q352 397 352 384V224Q352 210 342 201Q333 192 320 192H240L336 0H288L192 192H48Q41 192 36 187Q32 182 32 176V16Q32 9 27 4Q22 0 16 0V0Z" />
<glyph unicode="S" glyph-name="null" horiz-adv-x="411" d="M32 0Q18 0 9 9Q0 18 0 32V48Q0 54 4 59Q9 64 16 64Q22 64 27 59Q32 54 32 48Q32 41 36 36Q41 32 48 32H304Q310 32 315 36Q320 41 320 48V176Q320 182 315 187Q310 192 304 192H32Q18 192 9 201Q0
210 0 224V384Q0 397 9 406Q18 416 32 416H320Q333 416 342 406Q352 397 352 384V336Q352 329 347 324Q342 320 336 320Q329 320 324 324Q320 329 320 336V368Q320 374 315 379Q310 384 304 384H48Q41 384 36 379Q32 374 32 368V240Q32 233 36 228Q41 224 48 224H320Q333
224 342 214Q352 205 352 192V32Q352 18 342 9Q333 0 320 0H32Z" />
<glyph unicode="T" glyph-name="null" horiz-adv-x="411" d="M176 0Q169 0 164 4Q160 9 160 16V368Q160 374 155 379Q150 384 144 384H48Q41 384 36 379Q32 374 32 368Q32 361 27 356Q22 352 16 352Q9 352 4 356Q0 361 0 368V384Q0 397 9 406Q18 416 32 416H320Q333
416 342 406Q352 397 352 384V368Q352 361 347 356Q342 352 336 352Q329 352 324 356Q320 361 320 368Q320 374 315 379Q310 384 304 384H208Q201 384 196 379Q192 374 192 368V16Q192 9 187 4Q182 0 176 0V0Z" />
<glyph unicode="U" glyph-name="null" horiz-adv-x="411" d="M32 0Q18 0 9 9Q0 18 0 32V384Q0 397 9 406Q18 416 32 416H48Q54 416 59 411Q64 406 64 400Q64 393 59 388Q54 384 48 384Q41 384 36 379Q32 374 32 368V48Q32 41 36 36Q41 32 48 32H304Q310 32 315
36Q320 41 320 48V368Q320 374 315 379Q310 384 304 384Q297 384 292 388Q288 393 288 400Q288 406 292 411Q297 416 304 416H320Q333 416 342 406Q352 397 352 384V32Q352 18 342 9Q333 0 320 0H32Z" />
<glyph unicode="V" glyph-name="null" horiz-adv-x="411" d="M176 0L0 352V416L176 64L352 416V352L176 0V0Z" />
<glyph unicode="W" glyph-name="null" horiz-adv-x="411" d="M32 0Q18 0 9 9Q0 18 0 32V384Q0 397 9 406Q18 416 32 416H48Q54 416 59 411Q64 406 64 400Q64 393 59 388Q54 384 48 384Q41 384 36 379Q32 374 32 368V48Q32 41 36 36Q41 32 48 32H144Q150 32 155
36Q160 41 160 48V400Q160 406 164 411Q169 416 176 416Q182 416 187 411Q192 406 192 400V48Q192 41 196 36Q201 32 208 32H304Q310 32 315 36Q320 41 320 48V368Q320 374 315 379Q310 384 304 384Q297 384 292 388Q288 393 288 400Q288 406 292 411Q297 416 304
416H320Q333 416 342 406Q352 397 352 384V32Q352 18 342 9Q333 0 320 0H192Q185 0 180 4Q176 9 176 16Q176 9 171 4Q166 0 160 0H32Z" />
<glyph unicode="X" glyph-name="null" horiz-adv-x="411" d="M0 0V64L144 208L0 352V416L176 240L352 416V352L208 208L352 64V0L176 176L0 0V0Z" />
<glyph unicode="Y" glyph-name="null" horiz-adv-x="411" d="M144 0Q137 0 132 4Q128 9 128 16Q128 22 132 27Q137 32 144 32Q150 32 155 36Q160 41 160 48V176Q160 182 155 187Q150 192 144 192H32Q18 192 9 201Q0 210 0 224V384Q0 397 9 406Q18 416 32 416H48Q54
416 59 411Q64 406 64 400Q64 393 59 388Q54 384 48 384Q41 384 36 379Q32 374 32 368V240Q32 233 36 228Q41 224 48 224H304Q310 224 315 228Q320 233 320 240V368Q320 374 315 379Q310 384 304 384Q297 384 292 388Q288 393 288 400Q288 406 292 411Q297 416
304 416H320Q333 416 342 406Q352 397 352 384V224Q352 210 342 201Q333 192 320 192H208Q201 192 196 187Q192 182 192 176V48Q192 41 196 36Q201 32 208 32Q214 32 219 27Q224 22 224 16Q224 9 219 4Q214 0 208 0H144Z" />
<glyph unicode="Z" glyph-name="null" horiz-adv-x="411" d="M32 0Q18 0 9 9Q0 18 0 32V64L288 352V368Q288 374 283 379Q278 384 272 384H48Q41 384 36 379Q32 374 32 368Q32 361 27 356Q22 352 16 352Q9 352 4 356Q0 361 0 368V384Q0 397 9 406Q18 416 32 416H320Q333
416 342 406Q352 397 352 384V352L64 64V48Q64 41 68 36Q73 32 80 32H304Q310 32 315 36Q320 41 320 48Q320 54 324 59Q329 64 336 64Q342 64 347 59Q352 54 352 48V32Q352 18 342 9Q333 0 320 0H32Z" />
<glyph unicode="[" glyph-name="null" horiz-adv-x="187" d="M64 0Q50 0 41 9Q32 18 32 32V384Q32 397 41 406Q50 416 64 416H112Q118 416 123 411Q128 406 128 400Q128 393 123 388Q118 384 112 384H80Q73 384 68 379Q64 374 64 368V48Q64 41 68 36Q73 32 80
32H112Q118 32 123 27Q128 22 128 16Q128 9 123 4Q118 0 112 0H64Z" />
<glyph unicode="\" glyph-name="null" horiz-adv-x="283" d="M224 0L16 416H48L224 64V0V0Z" />
<glyph unicode="]" glyph-name="null" horiz-adv-x="187" d="M48 0Q41 0 36 4Q32 9 32 16Q32 22 36 27Q41 32 48 32H80Q86 32 91 36Q96 41 96 48V368Q96 374 91 379Q86 384 80 384H48Q41 384 36 388Q32 393 32 400Q32 406 36 411Q41 416 48 416H96Q109 416 118
406Q128 397 128 384V32Q128 18 118 9Q109 0 96 0H48Z" />
<glyph unicode="^" glyph-name="null" horiz-adv-x="283" d="M32 192L112 352H144L224 192H192L128 320L64 192H32Z" />
<glyph unicode="_" glyph-name="null" horiz-adv-x="411" d="M16 0Q9 0 4 4Q0 9 0 16Q0 22 4 27Q9 32 16 32H336Q342 32 347 27Q352 22 352 16Q352 9 347 4Q342 0 336 0H16Z" />
<glyph unicode="`" glyph-name="null" horiz-adv-x="219" d="M112 288L32 368V416L160 288H112Z" />
<glyph unicode="a" glyph-name="null" horiz-adv-x="411" d="M304 32Q310 32 315 36Q320 41 320 48V80Q320 86 315 91Q310 96 304 96H48Q41 96 36 91Q32 86 32 80V48Q32 41 36 36Q41 32 48 32H304ZM336 -32Q329 -32 324 -27Q320 -22 320 -16V0H32Q18 0 9 9Q0 18
0 32V96Q0 109 9 118Q18 128 32 128H304Q310 128 315 132Q320 137 320 144V176Q320 182 315 187Q310 192 304 192H48Q41 192 36 187Q32 182 32 176Q32 169 27 164Q22 160 16 160Q9 160 4 164Q0 169 0 176V192Q0 205 9 214Q18 224 32 224H320Q333 224 342 214Q352
205 352 192V-16Q352 -22 347 -27Q342 -32 336 -32V-32Z" />
<glyph unicode="b" glyph-name="null" horiz-adv-x="411" d="M304 32Q310 32 315 36Q320 41 320 48V176Q320 182 315 187Q310 192 304 192H48Q41 192 36 187Q32 182 32 176V48Q32 41 36 36Q41 32 48 32H304ZM16 -32Q9 -32 4 -27Q0 -22 0 -16V384Q0 397 9 406Q18
416 32 416H48Q54 416 59 411Q64 406 64 400Q64 393 59 388Q54 384 48 384Q41 384 36 379Q32 374 32 368V240Q32 233 36 228Q41 224 48 224H320Q333 224 342 214Q352 205 352 192V32Q352 18 342 9Q333 0 320 0H48Q41 0 36 -4Q32 -9 32 -16Q32 -22 27 -27Q22 -32
16 -32V-32Z" />
<glyph unicode="c" glyph-name="null" horiz-adv-x="411" d="M32 0Q18 0 9 9Q0 18 0 32V192Q0 205 9 214Q18 224 32 224H320Q333 224 342 214Q352 205 352 192V176Q352 169 347 164Q342 160 336 160Q329 160 324 164Q320 169 320 176Q320 182 315 187Q310 192
304 192H48Q41 192 36 187Q32 182 32 176V48Q32 41 36 36Q41 32 48 32H304Q310 32 315 36Q320 41 320 48Q320 54 324 59Q329 64 336 64Q342 64 347 59Q352 54 352 48V32Q352 18 342 9Q333 0 320 0H32Z" />
<glyph unicode="d" glyph-name="null" horiz-adv-x="411" d="M304 32Q310 32 315 36Q320 41 320 48V176Q320 182 315 187Q310 192 304 192H48Q41 192 36 187Q32 182 32 176V48Q32 41 36 36Q41 32 48 32H304ZM336 -32Q329 -32 324 -27Q320 -22 320 -16Q320 -9 315
-4Q310 0 304 0H32Q18 0 9 9Q0 18 0 32V192Q0 205 9 214Q18 224 32 224H320V368Q320 374 315 379Q310 384 304 384Q297 384 292 388Q288 393 288 400Q288 406 292 411Q297 416 304 416H320Q333 416 342 406Q352 397 352 384V-16Q352 -22 347 -27Q342 -32 336 -32V-32Z"
/>
<glyph unicode="e" glyph-name="null" horiz-adv-x="411" d="M304 128Q310 128 315 132Q320 137 320 144V176Q320 182 315 187Q310 192 304 192H48Q41 192 36 187Q32 182 32 176V144Q32 137 36 132Q41 128 48 128H304ZM32 0Q18 0 9 9Q0 18 0 32V192Q0 205 9 214Q18
224 32 224H320Q333 224 342 214Q352 205 352 192V128Q352 114 342 105Q333 96 320 96H48Q41 96 36 91Q32 86 32 80V48Q32 41 36 36Q41 32 48 32H304Q310 32 315 36Q320 41 320 48Q320 54 324 59Q329 64 336 64Q342 64 347 59Q352 54 352 48V32Q352 18 342 9Q333
0 320 0H32Z" />
<glyph unicode="f" glyph-name="null" horiz-adv-x="411" d="M48 -128Q41 -128 36 -123Q32 -118 32 -112V-16Q32 -9 27 -4Q22 0 16 0Q9 0 4 4Q0 9 0 16Q0 22 4 27Q9 32 16 32Q22 32 27 36Q32 41 32 48V192Q32 205 41 214Q50 224 64 224H320Q333 224 342 214Q352
205 352 192V176Q352 169 347 164Q342 160 336 160Q329 160 324 164Q320 169 320 176Q320 182 315 187Q310 192 304 192H80Q73 192 68 187Q64 182 64 176V48Q64 41 68 36Q73 32 80 32H176Q182 32 187 27Q192 22 192 16Q192 9 187 4Q182 0 176 0H80Q73 0 68 -4Q64
-9 64 -16V-112Q64 -118 59 -123Q54 -128 48 -128V-128Z" />
<glyph unicode="g" glyph-name="null" horiz-adv-x="411" d="M272 32Q278 32 283 36Q288 41 288 48V176Q288 182 283 187Q278 192 272 192H48Q41 192 36 187Q32 182 32 176V48Q32 41 36 36Q41 32 48 32H272ZM32 -128Q18 -128 9 -118Q0 -109 0 -96V-80Q0 -73 4
-68Q9 -64 16 -64Q22 -64 27 -68Q32 -73 32 -80Q32 -86 36 -91Q41 -96 48 -96H272Q278 -96 283 -91Q288 -86 288 -80V-16Q288 -9 283 -4Q278 0 272 0H32Q18 0 9 9Q0 18 0 32V192Q0 205 9 214Q18 224 32 224H272Q278 224 283 228Q288 233 288 240Q288 246 292 251Q297
256 304 256Q310 256 315 251Q320 246 320 240V32H336Q342 32 347 27Q352 22 352 16Q352 9 347 4Q342 0 336 0H320V-96Q320 -109 310 -118Q301 -128 288 -128H32Z" />
<glyph unicode="h" glyph-name="null" horiz-adv-x="411" d="M32 0Q18 0 9 9Q0 18 0 32V384Q0 397 9 406Q18 416 32 416H48Q54 416 59 411Q64 406 64 400Q64 393 59 388Q54 384 48 384Q41 384 36 379Q32 374 32 368V240Q32 233 36 228Q41 224 48 224H320Q333 224
342 214Q352 205 352 192V32Q352 18 342 9Q333 0 320 0H304Q297 0 292 4Q288 9 288 16Q288 22 292 27Q297 32 304 32Q310 32 315 36Q320 41 320 48V176Q320 182 315 187Q310 192 304 192H48Q41 192 36 187Q32 182 32 176V48Q32 41 36 36Q41 32 48 32Q54 32 59 27Q64
22 64 16Q64 9 59 4Q54 0 48 0H32Z" />
<glyph unicode="i" glyph-name="null" horiz-adv-x="187" d="M48 0Q41 0 36 4Q32 9 32 16Q32 22 36 27Q41 32 48 32Q54 32 59 36Q64 41 64 48V192H48Q41 192 36 196Q32 201 32 208Q32 214 36 219Q41 224 48 224H64Q77 224 86 214Q96 205 96 192V48Q96 41 100 36Q105
32 112 32Q118 32 123 27Q128 22 128 16Q128 9 123 4Q118 0 112 0H48ZM80 256Q73 256 68 260Q64 265 64 272Q64 278 68 283Q73 288 80 288Q86 288 91 283Q96 278 96 272Q96 265 91 260Q86 256 80 256V256Z" />
<glyph unicode="j" glyph-name="null" horiz-adv-x="219" d="M32 -128Q18 -128 9 -118Q0 -109 0 -96V-80Q0 -73 4 -68Q9 -64 16 -64Q22 -64 27 -68Q32 -73 32 -80Q32 -86 36 -91Q41 -96 48 -96H112Q118 -96 123 -91Q128 -86 128 -80V176Q128 182 123 187Q118 192
112 192Q105 192 100 196Q96 201 96 208Q96 214 100 219Q105 224 112 224H128Q141 224 150 214Q160 205 160 192V-96Q160 -109 150 -118Q141 -128 128 -128H32ZM144 256Q137 256 132 260Q128 265 128 272Q128 278 132 283Q137 288 144 288Q150 288 155 283Q160
278 160 272Q160 265 155 260Q150 256 144 256V256Z" />
<glyph unicode="k" glyph-name="null" horiz-adv-x="443" d="M48 0Q41 0 36 4Q32 9 32 16V80Q32 86 27 91Q22 96 16 96Q9 96 4 100Q0 105 0 112Q0 118 4 123Q9 128 16 128Q22 128 27 132Q32 137 32 144V384Q32 397 41 406Q50 416 64 416H80Q86 416 91 411Q96 406
96 400Q96 393 91 388Q86 384 80 384Q73 384 68 379Q64 374 64 368V144Q64 137 68 132Q73 128 80 128H288L320 192H352L320 128V96L368 0H336L288 96H80Q73 96 68 91Q64 86 64 80V16Q64 9 59 4Q54 0 48 0V0Z" />
<glyph unicode="l" glyph-name="null" horiz-adv-x="155" d="M64 0Q50 0 41 9Q32 18 32 32V400Q32 406 36 411Q41 416 48 416Q54 416 59 411Q64 406 64 400V48Q64 41 68 36Q73 32 80 32Q86 32 91 27Q96 22 96 16Q96 9 91 4Q86 0 80 0H64Z" />
<glyph unicode="m" glyph-name="null" horiz-adv-x="443" d="M32 0Q18 0 9 9Q0 18 0 32V240Q0 246 4 251Q9 256 16 256Q22 256 27 251Q32 246 32 240Q32 233 36 228Q41 224 48 224H160Q166 224 171 219Q176 214 176 208Q176 214 180 219Q185 224 192 224H320Q333
224 342 214Q352 205 352 192V48Q352 41 356 36Q361 32 368 32Q374 32 379 27Q384 22 384 16Q384 9 379 4Q374 0 368 0H352Q338 0 329 9Q320 18 320 32V176Q320 182 315 187Q310 192 304 192H208Q201 192 196 187Q192 182 192 176V48Q192 41 196 36Q201 32 208
32Q214 32 219 27Q224 22 224 16Q224 9 219 4Q214 0 208 0H192Q178 0 169 9Q160 18 160 32V176Q160 182 155 187Q150 192 144 192H48Q41 192 36 187Q32 182 32 176V48Q32 41 36 36Q41 32 48 32Q54 32 59 27Q64 22 64 16Q64 9 59 4Q54 0 48 0H32Z" />
<glyph unicode="n" glyph-name="null" horiz-adv-x="443" d="M32 0Q18 0 9 9Q0 18 0 32V240Q0 246 4 251Q9 256 16 256Q22 256 27 251Q32 246 32 240Q32 233 36 228Q41 224 48 224H320Q333 224 342 214Q352 205 352 192V48Q352 41 356 36Q361 32 368 32Q374 32
379 27Q384 22 384 16Q384 9 379 4Q374 0 368 0H352Q338 0 329 9Q320 18 320 32V176Q320 182 315 187Q310 192 304 192H48Q41 192 36 187Q32 182 32 176V48Q32 41 36 36Q41 32 48 32Q54 32 59 27Q64 22 64 16Q64 9 59 4Q54 0 48 0H32Z" />
<glyph unicode="o" glyph-name="null" horiz-adv-x="411" d="M304 32Q310 32 315 36Q320 41 320 48V176Q320 182 315 187Q310 192 304 192H48Q41 192 36 187Q32 182 32 176V48Q32 41 36 36Q41 32 48 32H304ZM32 0Q18 0 9 9Q0 18 0 32V192Q0 205 9 214Q18 224 32
224H320Q333 224 342 214Q352 205 352 192V32Q352 18 342 9Q333 0 320 0H32Z" />
<glyph unicode="p" glyph-name="null" horiz-adv-x="411" d="M304 32Q310 32 315 36Q320 41 320 48V176Q320 182 315 187Q310 192 304 192H48Q41 192 36 187Q32 182 32 176V48Q32 41 36 36Q41 32 48 32H304ZM32 -128Q18 -128 9 -118Q0 -109 0 -96V240Q0 246 4
251Q9 256 16 256Q22 256 27 251Q32 246 32 240Q32 233 36 228Q41 224 48 224H320Q333 224 342 214Q352 205 352 192V32Q352 18 342 9Q333 0 320 0H48Q41 0 36 -4Q32 -9 32 -16V-80Q32 -86 36 -91Q41 -96 48 -96Q54 -96 59 -100Q64 -105 64 -112Q64 -118 59 -123Q54
-128 48 -128H32Z" />
<glyph unicode="q" glyph-name="null" horiz-adv-x="443" d="M304 32Q310 32 315 36Q320 41 320 48V176Q320 182 315 187Q310 192 304 192H48Q41 192 36 187Q32 182 32 176V48Q32 41 36 36Q41 32 48 32H304ZM352 -128Q338 -128 329 -118Q320 -109 320 -96V-16Q320
-9 315 -4Q310 0 304 0H32Q18 0 9 9Q0 18 0 32V192Q0 205 9 214Q18 224 32 224H304Q310 224 315 228Q320 233 320 240Q320 246 324 251Q329 256 336 256Q342 256 347 251Q352 246 352 240V-80Q352 -86 356 -91Q361 -96 368 -96Q374 -96 379 -100Q384 -105 384 -112Q384
-118 379 -123Q374 -128 368 -128H352Z" />
<glyph unicode="r" glyph-name="null" horiz-adv-x="411" d="M32 0Q18 0 9 9Q0 18 0 32V240Q0 246 4 251Q9 256 16 256Q22 256 27 251Q32 246 32 240Q32 233 36 228Q41 224 48 224H320Q333 224 342 214Q352 205 352 192V176Q352 169 347 164Q342 160 336 160Q329
160 324 164Q320 169 320 176Q320 182 315 187Q310 192 304 192H48Q41 192 36 187Q32 182 32 176V48Q32 41 36 36Q41 32 48 32Q54 32 59 27Q64 22 64 16Q64 9 59 4Q54 0 48 0H32Z" />
<glyph unicode="s" glyph-name="null" horiz-adv-x="411" d="M32 0Q18 0 9 9Q0 18 0 32V48Q0 54 4 59Q9 64 16 64Q22 64 27 59Q32 54 32 48Q32 41 36 36Q41 32 48 32H304Q310 32 315 36Q320 41 320 48V80Q320 86 315 91Q310 96 304 96H32Q18 96 9 105Q0 114 0
128V192Q0 205 9 214Q18 224 32 224H320Q333 224 342 214Q352 205 352 192V176Q352 169 347 164Q342 160 336 160Q329 160 324 164Q320 169 320 176Q320 182 315 187Q310 192 304 192H48Q41 192 36 187Q32 182 32 176V144Q32 137 36 132Q41 128 48 128H320Q333
128 342 118Q352 109 352 96V32Q352 18 342 9Q333 0 320 0H32Z" />
<glyph unicode="t" glyph-name="null" horiz-adv-x="219" d="M96 -128Q82 -128 73 -118Q64 -109 64 -96V176Q64 182 59 187Q54 192 48 192H16Q9 192 4 196Q0 201 0 208Q0 214 4 219Q9 224 16 224H48Q54 224 59 228Q64 233 64 240V304Q64 310 68 315Q73 320 80
320Q86 320 91 315Q96 310 96 304V240Q96 233 100 228Q105 224 112 224H144Q150 224 155 219Q160 214 160 208Q160 201 155 196Q150 192 144 192H112Q105 192 100 187Q96 182 96 176V-80Q96 -86 100 -91Q105 -96 112 -96H144Q150 -96 155 -100Q160 -105 160 -112Q160
-118 155 -123Q150 -128 144 -128H96Z" />
<glyph unicode="u" glyph-name="null" horiz-adv-x="411" d="M336 -32Q329 -32 324 -27Q320 -22 320 -16Q320 -9 315 -4Q310 0 304 0H32Q18 0 9 9Q0 18 0 32V192Q0 205 9 214Q18 224 32 224H48Q54 224 59 219Q64 214 64 208Q64 201 59 196Q54 192 48 192Q41 192
36 187Q32 182 32 176V48Q32 41 36 36Q41 32 48 32H304Q310 32 315 36Q320 41 320 48V176Q320 182 315 187Q310 192 304 192Q297 192 292 196Q288 201 288 208Q288 214 292 219Q297 224 304 224H320Q333 224 342 214Q352 205 352 192V-16Q352 -22 347 -27Q342 -32
336 -32V-32Z" />
<glyph unicode="v" glyph-name="null" horiz-adv-x="411" d="M144 0L48 192H16Q9 192 4 196Q0 201 0 208Q0 214 4 219Q9 224 16 224H64L160 32H192L288 224H336Q342 224 347 219Q352 214 352 208Q352 201 347 196Q342 192 336 192H304L208 0H144Z" />
<glyph unicode="w" glyph-name="null" horiz-adv-x="411" d="M336 -32Q329 -32 324 -27Q320 -22 320 -16V0H192Q185 0 180 4Q176 9 176 16Q176 9 171 4Q166 0 160 0H32Q18 0 9 9Q0 18 0 32V208Q0 214 4 219Q9 224 16 224Q22 224 27 219Q32 214 32 208V48Q32 41
36 36Q41 32 48 32H144Q150 32 155 36Q160 41 160 48V208Q160 214 164 219Q169 224 176 224Q182 224 187 219Q192 214 192 208V48Q192 41 196 36Q201 32 208 32H304Q310 32 315 36Q320 41 320 48V208Q320 214 324 219Q329 224 336 224Q342 224 347 219Q352 214
352 208V-16Q352 -22 347 -27Q342 -32 336 -32V-32Z" />
<glyph unicode="x" glyph-name="null" horiz-adv-x="475" d="M16 0Q9 0 4 4Q0 9 0 16Q0 22 4 27Q9 32 16 32H32L192 112L32 192H16Q9 192 4 196Q0 201 0 208Q0 214 4 219Q9 224 16 224H32L192 144H224L384 224H400Q406 224 411 219Q416 214 416 208Q416 201 411
196Q406 192 400 192H384L224 112L384 32H400Q406 32 411 27Q416 22 416 16Q416 9 411 4Q406 0 400 0H384L224 80H192L32 0H16Z" />
<glyph unicode="y" glyph-name="null" horiz-adv-x="411" d="M272 -128Q265 -128 260 -123Q256 -118 256 -112Q256 -105 260 -100Q265 -96 272 -96H304Q310 -96 315 -91Q320 -86 320 -80V-16Q320 -9 315 -4Q310 0 304 0H32Q18 0 9 9Q0 18 0 32V192Q0 205 9 214Q18
224 32 224H48Q54 224 59 219Q64 214 64 208Q64 201 59 196Q54 192 48 192Q41 192 36 187Q32 182 32 176V48Q32 41 36 36Q41 32 48 32H304Q310 32 315 36Q320 41 320 48V176Q320 182 315 187Q310 192 304 192Q297 192 292 196Q288 201 288 208Q288 214 292 219Q297
224 304 224H320Q333 224 342 214Q352 205 352 192V-96Q352 -109 342 -118Q333 -128 320 -128H272Z" />
<glyph unicode="z" glyph-name="null" horiz-adv-x="411" d="M32 0Q18 0 9 9Q0 18 0 32L320 192H48Q41 192 36 187Q32 182 32 176Q32 169 27 164Q22 160 16 160Q9 160 4 164Q0 169 0 176V192Q0 205 9 214Q18 224 32 224H320Q333 224 342 214Q352 205 352 192V176L64
32H304Q310 32 315 36Q320 41 320 48Q320 54 324 59Q329 64 336 64Q342 64 347 59Q352 54 352 48V32Q352 18 342 9Q333 0 320 0H32Z" />
<glyph unicode="{" glyph-name="null" horiz-adv-x="187" d="M64 0Q50 0 41 9Q32 18 32 32V192H16Q9 192 4 196Q0 201 0 208Q0 214 4 219Q9 224 16 224H32V384Q32 397 41 406Q50 416 64 416H112Q118 416 123 411Q128 406 128 400Q128 393 123 388Q118 384 112
384H80Q73 384 68 379Q64 374 64 368V224Q64 217 59 212Q54 208 48 208Q54 208 59 203Q64 198 64 192V48Q64 41 68 36Q73 32 80 32H112Q118 32 123 27Q128 22 128 16Q128 9 123 4Q118 0 112 0H64Z" />
<glyph unicode="|" glyph-name="null" horiz-adv-x="123" d="M48 0Q41 0 36 4Q32 9 32 16V400Q32 406 36 411Q41 416 48 416Q54 416 59 411Q64 406 64 400V16Q64 9 59 4Q54 0 48 0V0Z" />
<glyph unicode="}" glyph-name="null" horiz-adv-x="187" d="M16 0Q9 0 4 4Q0 9 0 16Q0 22 4 27Q9 32 16 32H48Q54 32 59 36Q64 41 64 48V192Q64 198 68 203Q73 208 80 208Q73 208 68 212Q64 217 64 224V368Q64 374 59 379Q54 384 48 384H16Q9 384 4 388Q0 393
0 400Q0 406 4 411Q9 416 16 416H64Q77 416 86 406Q96 397 96 384V224H112Q118 224 123 219Q128 214 128 208Q128 201 123 196Q118 192 112 192H96V32Q96 18 86 9Q77 0 64 0H16Z" />
<glyph unicode="~" glyph-name="null" horiz-adv-x="283" d="M48 144Q41 144 36 148Q32 153 32 160V192Q32 205 41 214Q50 224 64 224H176Q182 224 187 228Q192 233 192 240V256Q192 262 196 267Q201 272 208 272Q214 272 219 267Q224 262 224 256V224Q224 210
214 201Q205 192 192 192H80Q73 192 68 187Q64 182 64 176V160Q64 153 59 148Q54 144 48 144V144Z" />
</font>
</defs>
</svg>
